<svg id="Logo" xmlns="http://www.w3.org/2000/svg" viewBox="0 0 610.62 108.5"><title>logo_RubyMine</title><rect y="3.3" width="85.04" height="85.04"/><polygon points="28.27 13.95 33.31 13.95 38.9 22.94 44.48 13.95 49.52 13.95 49.52 35.2 44.88 35.2 44.88 21.33 38.9 30.41 38.77 30.41 32.86 21.42 32.86 35.2 28.27 35.2 28.27 13.95" fill="#fff"/><path d="M152.66,159.69h9.7a8.38,8.38,0,0,1,6.18,2.15,6.56,6.56,0,0,1,1.82,4.85v0.06a6.65,6.65,0,0,1-1.26,4.2,7.29,7.29,0,0,1-3.29,2.38l5.18,7.58h-5.46l-4.39-6.52H157.3l0,6.52h-4.67V159.69Zm9.4,10.31a3.88,3.88,0,0,0,2.65-.82,2.77,2.77,0,0,0,.92-2.18v-0.06a2.71,2.71,0,0,0-1-2.27,4.29,4.29,0,0,0-2.7-.76h-4.64V170h4.73Z" transform="translate(-144.69 -145.75)" fill="#fff"/><rect x="7.97" y="72.41" width="31.89" height="5.31" fill="#fff"/><path d="M250.85,149.39h38.88c10.81,0,19.2,3,24.79,8.63,4.74,4.74,7.29,11.42,7.29,19.44v0.24c0,13.73-7.41,22.36-18.23,26.37l20.78,30.38H302.49l-18.23-27.22h-14.7v27.22H250.85V149.39Zm37.67,41.31c9.11,0,14.34-4.86,14.34-12v-0.24c0-8-5.59-12.15-14.7-12.15H269.56V190.7h19Z" transform="translate(-144.69 -145.75)"/><path d="M324.11,211.48V169.32h18.47v36.33c0,8.75,4.13,13.24,11.18,13.24s11.54-4.5,11.54-13.24V169.32h18.47v65.13H365.3v-9.23c-4.25,5.47-9.72,10.45-19.08,10.45C332.25,235.66,324.11,226.43,324.11,211.48Z" transform="translate(-144.69 -145.75)"/><path d="M406.12,225.94v8.51H387.65v-88.7h18.47v32.93c4.5-6.08,10.69-10.57,20.29-10.57,15.19,0,29.65,11.91,29.65,33.66V202c0,21.75-14.22,33.66-29.65,33.66C416.57,235.66,410.5,231.17,406.12,225.94ZM437.59,202v-0.24c0-10.81-7.29-18-15.92-18s-15.8,7.17-15.8,18V202c0,10.81,7.17,18,15.8,18S437.59,212.94,437.59,202Z" transform="translate(-144.69 -145.75)"/><path d="M496.88,169.32h19.2l-25,66.71c-5,13.24-10.33,18.23-21.38,18.23a30.57,30.57,0,0,1-16.4-4.5l6.2-13.37a16.79,16.79,0,0,0,7.9,2.55c3.16,0,4.86-1,6.44-4.25l-25.52-65.37h19.56l14.82,44.35Z" transform="translate(-144.69 -145.75)"/><path d="M517.53,149.39H537.7l22.36,36,22.36-36h20.17v85.05H584V178.92l-23.94,36.33h-0.49l-23.69-36v55.16H517.53V149.39Z" transform="translate(-144.69 -145.75)"/><path d="M606.84,145.75h19.44v16.4H606.84v-16.4Zm0.49,23.57h18.47v65.13H607.32V169.32Z" transform="translate(-144.69 -145.75)"/><path d="M629.8,169.32h18.47v9.23c4.25-5.47,9.72-10.45,19.08-10.45,14,0,22.11,9.23,22.11,24.18v42.16H671V198.12c0-8.75-4.13-13.24-11.18-13.24s-11.54,4.5-11.54,13.24v36.33H629.8V169.32Z" transform="translate(-144.69 -145.75)"/><path d="M691.4,202.25V202c0-18.59,13.24-33.9,32.2-33.9,21.75,0,31.71,16.89,31.71,35.36,0,1.46-.12,3.16-0.24,4.86H709.74c1.82,8.38,7.66,12.76,15.92,12.76,6.2,0,10.69-1.94,15.8-6.68L752,223.75c-6.08,7.53-14.82,12.15-26.61,12.15C705.86,235.9,691.4,222.17,691.4,202.25Zm45.93-5.47c-1.09-8.26-6-13.85-13.73-13.85S711,188.4,709.5,196.78h27.82Z" transform="translate(-144.69 -145.75)"/></svg>