<svg id="Layer_1" data-name="Layer 1" xmlns="http://www.w3.org/2000/svg" xmlns:xlink="http://www.w3.org/1999/xlink" viewBox="0 0 128 128">
  <defs>
    <linearGradient id="linear-gradient" x1="-2.44" y1="-728.81" x2="122.59" y2="-696.56" gradientTransform="matrix(1, 0, 0, -1, 0, -648.86)" gradientUnits="userSpaceOnUse">
      <stop offset="0.12" stop-color="#7866ff"/>
      <stop offset="0.54" stop-color="#fe2eb6"/>
      <stop offset="0.85" stop-color="#fd0486"/>
    </linearGradient>
    <linearGradient id="linear-gradient-2" x1="83.98" y1="-720.01" x2="123.74" y2="-665.49" gradientTransform="matrix(1, 0, 0, -1, 0, -648.86)" gradientUnits="userSpaceOnUse">
      <stop offset="0.12" stop-color="#ff0080"/>
      <stop offset="0.26" stop-color="#fe0385"/>
      <stop offset="0.41" stop-color="#fa0c92"/>
      <stop offset="0.57" stop-color="#f41ba9"/>
      <stop offset="0.74" stop-color="#eb2fc8"/>
      <stop offset="0.87" stop-color="#e343e6"/>
    </linearGradient>
  </defs>
  <title>icon_dotTrace</title>
  <g>
    <g>
      <polygon points="123 29.2 80 0 0 56.8 20.2 128 107.8 110.2 123 29.2" fill="url(#linear-gradient)"/>
      <polygon points="123 29.2 80 0 69.4 28.8 69.4 87.4 128 87.4 123 29.2" fill="url(#linear-gradient-2)"/>
    </g>
    <g>
      <rect x="24.4" y="24.4" width="79" height="79"/>
      <rect x="31.8" y="88.6" width="29.6" height="5" fill="#fff"/>
      <g>
        <path d="M31.8,35H44.6C54.8,35,62,42,62,51.2h0c0,9.2-7,16.2-17.4,16.2H31.8V35ZM39,41.4V61h5.6a9.34,9.34,0,0,0,9.8-9.8h0a9.34,9.34,0,0,0-9.8-9.8H39Z" fill="#fff"/>
        <polygon points="73.8 41.6 63.8 41.6 63.8 35 90.8 35 90.8 41.6 80.8 41.6 80.8 67.6 73.8 67.6 73.8 41.6" fill="#fff"/>
      </g>
    </g>
  </g>
</svg>
