<svg id="Layer_1" data-name="Layer 1" xmlns="http://www.w3.org/2000/svg" xmlns:xlink="http://www.w3.org/1999/xlink" viewBox="0 0 128 128">
  <defs>
    <linearGradient id="linear-gradient" x1="14.8" y1="-678.33" x2="53.57" y2="-776.37" gradientTransform="matrix(1, 0, 0, -1, 0, -648.86)" gradientUnits="userSpaceOnUse">
      <stop offset="0.22" stop-color="#c40b55"/>
      <stop offset="0.68" stop-color="#e343e6"/>
      <stop offset="0.92" stop-color="#f59252"/>
    </linearGradient>
    <linearGradient id="linear-gradient-2" x1="360.23" y1="-782.86" x2="455.02" y2="-682.03" gradientTransform="translate(455.84 -648.86) rotate(180)" gradientUnits="userSpaceOnUse">
      <stop offset="0.11" stop-color="#ffbd00"/>
      <stop offset="0.59" stop-color="#e343e6"/>
      <stop offset="0.82" stop-color="#ec841b"/>
      <stop offset="0.94" stop-color="#ffbd00"/>
    </linearGradient>
    <linearGradient id="linear-gradient-3" x1="46.63" y1="-645.31" x2="127.92" y2="-742.41" gradientTransform="matrix(1, 0, 0, -1, 0, -648.86)" gradientUnits="userSpaceOnUse">
      <stop offset="0.13" stop-color="#ffbd00"/>
      <stop offset="0.64" stop-color="#e343e6"/>
      <stop offset="0.91" stop-color="#c40b55"/>
    </linearGradient>
  </defs>
  <title>icon_ReSharperC++</title>
  <g>
    <g>
      <polygon points="36.8 27.8 62.2 67 21.2 128 0 42.2 36.8 27.8" fill="url(#linear-gradient)"/>
      <polygon points="34.6 28.6 38.4 0 93.6 61.4 77.6 77.2 90 128 21.2 128 34.6 28.6" fill="url(#linear-gradient-2)"/>
    </g>
    <polygon points="64.4 86 128 86 106.8 0 38.4 0 64.4 86" fill="url(#linear-gradient-3)"/>
  </g>
  <g>
    <g>
      <rect x="24" y="24" width="80" height="80"/>
      <path d="M31.4,34.4H46.6c4.2,0,7.4,1.2,9.6,3.4A10.43,10.43,0,0,1,59,45.4h0A10.37,10.37,0,0,1,57,52a12.57,12.57,0,0,1-5.2,3.8L60,67.6H51.4L44.6,57.4h-6V67.6H31.4V34.4ZM46.2,50.55a6.59,6.59,0,0,0,4.2-1.35,4.12,4.12,0,0,0,1.4-3.4h0a4.39,4.39,0,0,0-1.6-3.6A6.56,6.56,0,0,0,46,41H38.8v9.6l7.4-.05h0Z" fill="#fff"/>
      <rect x="31.4" y="89" width="30" height="5" fill="#fff"/>
    </g>
    <path d="M80.2,44.4H72.8V37.8h7.4V30.4H87v7.4h7.4v6.6H87v7.4H80.2V44.4Z" fill="#fff"/>
    <path d="M68,63.2H60.6V56.6H68V49.2h6.8v7.4h7.4v6.6H74.8v7.4H68V63.2Z" fill="#fff"/>
  </g>
</svg>
