<svg id="Logo" xmlns="http://www.w3.org/2000/svg" viewBox="0 0 869.63 108.23"><title>logo_ReSharperC++</title><rect y="3.67" width="85.04" height="85.04"/><path d="M121.24,149.53h38.92c10.82,0,19.21,3,24.81,8.63,4.74,4.74,7.3,11.43,7.3,19.46v0.24c0,13.74-7.42,22.38-18.24,26.39l20.8,30.4H172.93l-18.24-27.24H140v27.24H121.24V149.53Zm37.7,41.35c9.12,0,14.35-4.86,14.35-12V178.6c0-8-5.59-12.16-14.72-12.16H140v24.44h19Z" transform="translate(-15.18 -145.88)"/><path d="M190.93,202.43v-0.24c0-18.61,13.26-33.93,32.23-33.93,21.77,0,31.74,16.9,31.74,35.39,0,1.46-.12,3.16-0.24,4.86H209.29c1.82,8.39,7.66,12.77,15.93,12.77,6.2,0,10.7-1.95,15.81-6.69L251.61,224c-6.08,7.54-14.84,12.16-26.63,12.16C205.4,236.12,190.93,222.38,190.93,202.43Zm46-5.47c-1.09-8.27-6-13.86-13.74-13.86S210.51,188.57,209,197h27.85Z" transform="translate(-15.18 -145.88)"/><path d="M252.86,222.25L263.93,209c7.66,6.32,15.69,10.34,25.42,10.34,7.66,0,12.28-3,12.28-8v-0.24c0-4.74-2.92-7.18-17.15-10.82-17.15-4.38-28.21-9.12-28.21-26V174c0-15.44,12.4-25.66,29.79-25.66a49.28,49.28,0,0,1,31.62,10.82L308,173.25c-7.54-5.23-15-8.39-22.13-8.39s-10.95,3.28-10.95,7.42v0.24c0,5.59,3.65,7.42,18.36,11.19,17.27,4.5,27,10.7,27,25.54v0.24c0,16.9-12.89,26.39-31.25,26.39A54.17,54.17,0,0,1,252.86,222.25Z" transform="translate(-15.18 -145.88)"/><path d="M322.55,145.88H341v32.84c4.26-5.47,9.73-10.46,19.09-10.46,14,0,22.13,9.24,22.13,24.2v42.2H363.77V198.3c0-8.76-4.13-13.26-11.19-13.26S341,189.54,341,198.3v36.36H322.55V145.88Z" transform="translate(-15.18 -145.88)"/><path d="M385.05,215.93v-0.24c0-14.23,10.82-20.8,26.27-20.8a46.32,46.32,0,0,1,15.93,2.68v-1.09c0-7.66-4.74-11.92-14-11.92-7.05,0-12,1.34-18,3.53L390.65,174a57.51,57.51,0,0,1,25.3-5.23c10.09,0,17.39,2.68,22,7.3,4.86,4.86,7.05,12,7.05,20.8v37.82H427.13v-7.05c-4.5,5-10.7,8.27-19.7,8.27C395.15,235.88,385.05,228.82,385.05,215.93Zm42.44-4.26v-3.28A28.66,28.66,0,0,0,415.7,206c-7.9,0-12.77,3.16-12.77,9v0.24c0,5,4.13,7.9,10.09,7.9C421.66,223.11,427.5,218.36,427.5,211.67Z" transform="translate(-15.18 -145.88)"/><path d="M448.29,169.48h18.48v13.13c3.77-9,9.85-14.84,20.8-14.35V187.6h-1c-12.28,0-19.82,7.42-19.82,23v24.08H448.29V169.48Z" transform="translate(-15.18 -145.88)"/><path d="M490.85,169.48h18.48v9.36c4.5-6.08,10.7-10.58,20.31-10.58,15.2,0,29.67,11.92,29.67,33.69v0.24c0,21.77-14.23,33.69-29.67,33.69-9.85,0-15.93-4.5-20.31-9.73v28H490.85V169.48Zm50,32.71v-0.24c0-10.82-7.3-18-15.93-18s-15.81,7.18-15.81,18v0.24c0,10.82,7.18,18,15.81,18S540.84,213.13,540.84,202.19Z" transform="translate(-15.18 -145.88)"/><path d="M562,202.43v-0.24c0-18.61,13.26-33.93,32.23-33.93,21.77,0,31.74,16.9,31.74,35.39,0,1.46-.12,3.16-0.24,4.86H580.36c1.82,8.39,7.66,12.77,15.93,12.77,6.2,0,10.7-1.95,15.81-6.69L622.68,224c-6.08,7.54-14.84,12.16-26.63,12.16C576.47,236.12,562,222.38,562,202.43ZM608,197c-1.09-8.27-6-13.86-13.74-13.86s-12.65,5.47-14.11,13.86H608Z" transform="translate(-15.18 -145.88)"/><path d="M628.88,169.48h18.48v13.13c3.77-9,9.85-14.84,20.8-14.35V187.6h-1c-12.28,0-19.82,7.42-19.82,23v24.08H628.88V169.48Z" transform="translate(-15.18 -145.88)"/><rect x="7.97" y="72.76" width="31.89" height="5.31" fill="#fff"/><path d="M54.42,166.74H49.61v-4.27h4.81v-4.78h4.4v4.78h4.81v4.27H58.82v4.78h-4.4v-4.78Z" transform="translate(-15.18 -145.88)" fill="#fff"/><path d="M46.59,178.84H41.78v-4.27h4.81v-4.78H51v4.78H55.8v4.27H51v4.78h-4.4v-4.78Z" transform="translate(-15.18 -145.88)" fill="#fff"/><path d="M23.16,160.19h9.71a8.39,8.39,0,0,1,6.19,2.15,6.57,6.57,0,0,1,1.82,4.86v0.06a6.66,6.66,0,0,1-1.26,4.2,7.3,7.3,0,0,1-3.29,2.38l5.19,7.59H36.06l-4.4-6.53H27.81l0,6.53H23.16V160.19Zm9.41,10.32a3.88,3.88,0,0,0,2.66-.82,2.78,2.78,0,0,0,.93-2.19v-0.06a2.71,2.71,0,0,0-1-2.28,4.29,4.29,0,0,0-2.7-.76H27.83v6.1h4.73Z" transform="translate(-15.18 -145.88)" fill="#fff"/><path d="M683.73,192.3v-0.24c0-24.18,18.23-44,44.35-44,16,0,25.64,5.35,33.54,13.12l-11.91,13.73c-6.56-6-13.24-9.6-21.75-9.6-14.34,0-24.67,11.91-24.67,26.49v0.24c0,14.58,10.08,26.73,24.67,26.73,9.72,0,15.67-3.89,22.36-10l11.91,12c-8.75,9.36-18.47,15.19-34.87,15.19C702.32,236,683.73,216.72,683.73,192.3Z" transform="translate(-15.18 -145.88)"/><path d="M780,200.2H758V183.43h22V161.56h17.25v21.87h22V200.2h-22v21.87H780V200.2Z" transform="translate(-15.18 -145.88)"/><path d="M845.57,200.2h-22V183.43h22V161.56h17.25v21.87h22V200.2h-22v21.87H845.57V200.2Z" transform="translate(-15.18 -145.88)"/></svg>