<svg id="Logo" xmlns="http://www.w3.org/2000/svg" viewBox="0 0 800 140.21">
  <title>logo_Upsource</title>
  <g>
    <g>
      <path d="M192.59,195.15V130h25.09V194.5c0,18.57,9.29,28.19,24.6,28.19s24.6-9.29,24.6-27.37V130H292v64.36c0,34.54-19.39,51.49-50,51.49S192.59,228.72,192.59,195.15Z" transform="translate(-50 -129.9)"/>
      <path d="M296.21,156.7H321v12.55c6-8.15,14.34-14.18,27.21-14.18,20.37,0,39.76,16,39.76,45.13v0.33c0,29.16-19.06,45.13-39.76,45.13-13.2,0-21.35-6-27.21-13V270.1H296.21V156.7Zm67,43.83V200.2c0-14.5-9.78-24.12-21.34-24.12s-21.18,9.61-21.18,24.12v0.33c0,14.5,9.61,24.11,21.18,24.11S363.18,215.19,363.18,200.53Z" transform="translate(-50 -129.9)"/>
      <path d="M384,232.46l10.59-16.29C404.07,223,414,226.6,422.15,226.6c7.17,0,10.43-2.61,10.43-6.52v-0.33c0-5.38-8.47-7.17-18.08-10.1-12.22-3.58-26.07-9.29-26.07-26.23v-0.33c0-17.76,14.34-27.7,31.93-27.7a60.44,60.44,0,0,1,32.59,10.1l-9.45,17.11c-8.64-5.05-17.27-8.15-23.62-8.15-6,0-9.12,2.61-9.12,6v0.33c0,4.89,8.31,7.17,17.76,10.43,12.22,4.07,26.4,9.94,26.4,25.91v0.32c0,19.39-14.5,28.19-33.4,28.19A61.18,61.18,0,0,1,384,232.46Z" transform="translate(-50 -129.9)"/>
      <path d="M455.88,200.85v-0.32c0-25.09,20.2-45.46,47.41-45.46,27,0,47.09,20,47.09,45.13v0.33c0,25.09-20.2,45.46-47.41,45.46C475.92,246,455.88,225.95,455.88,200.85Zm70.06,0v-0.32c0-12.87-9.29-24.12-23-24.12-14.18,0-22.65,10.92-22.65,23.79v0.33c0,12.87,9.29,24.11,23,24.11C517.47,224.64,525.94,213.73,525.94,200.85Z" transform="translate(-50 -129.9)"/>
      <path d="M552.65,213.24V156.7h24.77v48.72c0,11.73,5.54,17.76,15,17.76s15.48-6,15.48-17.76V156.7h24.77V244H607.89V231.65c-5.7,7.33-13,14-25.58,14C563.57,245.66,552.65,233.28,552.65,213.24Z" transform="translate(-50 -129.9)"/>
      <path d="M638.19,156.7H663v17.6c5.05-12.06,13.2-19.88,27.86-19.23V181h-1.3c-16.46,0-26.56,9.94-26.56,30.8V244H638.19V156.7Z" transform="translate(-50 -129.9)"/>
      <path d="M689.19,200.85v-0.32c0-24.93,19.06-45.46,45.78-45.46,16.46,0,26.72,5.54,34.87,14.66L754.68,186c-5.54-5.87-11.08-9.61-19.88-9.61-12.38,0-21.18,10.92-21.18,23.79v0.33c0,13.36,8.64,24.11,22.16,24.11,8.31,0,14-3.58,20-9.29L770.33,230c-8.47,9.29-18.25,16-35.68,16C708.41,246,689.19,225.78,689.19,200.85Z" transform="translate(-50 -129.9)"/>
      <path d="M764.3,200.85v-0.32c0-24.93,17.76-45.46,43.18-45.46,29.16,0,42.53,22.65,42.53,47.41,0,2-.16,4.24-0.33,6.52H788.9c2.44,11.24,10.27,17.11,21.35,17.11,8.31,0,14.34-2.61,21.18-9L845.6,229.7C837.45,239.8,825.72,246,809.92,246,783.68,246,764.3,227.58,764.3,200.85Zm61.59-7.33c-1.47-11.08-8-18.57-18.41-18.57-10.27,0-16.95,7.33-18.9,18.57h37.31Z" transform="translate(-50 -129.9)"/>
    </g>
    <g>
      <rect width="114.04" height="114.04"/>
      <g>
        <path d="M60.85,160.42V144h6.32v16.25c0,4.68,2.34,7.1,6.2,7.1s6.2-2.34,6.2-6.9V144h6.32v16.21c0,8.7-4.88,13-12.6,13S60.85,168.88,60.85,160.42Z" transform="translate(-50 -129.9)" fill="#fff"/>
        <path d="M89.18,144h11.74c6.85,0,11,4.06,11,9.93V154c0,6.65-5.17,10.1-11.62,10.1H95.5v8.62H89.18V144Zm11.33,14.49c3.16,0,5-1.89,5-4.35v-0.08c0-2.83-2-4.35-5.13-4.35H95.5v8.79h5Z" transform="translate(-50 -129.9)" fill="#fff"/>
      </g>
      <rect x="10.88" y="92.67" width="43.05" height="7.13" fill="#fff"/>
    </g>
  </g>
</svg>
