<svg id="Logo" xmlns="http://www.w3.org/2000/svg" viewBox="0 0 819.05 108.71">
  <title>logo_PyCharmEdu</title>
  <g>
    <g>
      <rect y="3.93" width="85.04" height="85.04" fill="#000001"/>
      <rect x="7.97" y="73.03" width="31.89" height="5.31" fill="#fff"/>
      <path d="M48.44,160.25h8.69c5.07,0,8.14,3,8.14,7.35v0.06c0,4.92-3.83,7.47-8.59,7.47H53.12v6.38H48.44V160.25ZM56.82,171c2.34,0,3.7-1.4,3.7-3.22v-0.06c0-2.09-1.46-3.22-3.8-3.22H53.12V171h3.7Z" transform="translate(-40.48 -145.65)" fill="#fff"/>
      <path d="M67.75,160.25h16v4.16H72.39v4.31h10v4.16h-10v4.46H83.93v4.16H67.75V160.25Z" transform="translate(-40.48 -145.65)" fill="#fff"/>
    </g>
    <g>
      <g>
        <path d="M146.86,149.56h34.73c20.28,0,32.54,12,32.54,29.39v0.24c0,19.67-15.3,29.87-34.36,29.87H165.56v25.5h-18.7v-85Zm33.51,42.86c9.35,0,14.81-5.59,14.81-12.87v-0.24c0-8.38-5.83-12.87-15.18-12.87H165.56v26h14.81Z" transform="translate(-40.48 -145.65)" fill="#000001"/>
        <path d="M263.43,169.48h19.19l-25,66.66c-5,13.24-10.32,18.21-21.37,18.21a30.56,30.56,0,0,1-16.39-4.49L226,236.5a16.77,16.77,0,0,0,7.89,2.55c3.16,0,4.86-1,6.44-4.25l-25.5-65.33h19.55l14.81,44.32Z" transform="translate(-40.48 -145.65)" fill="#000001"/>
        <path d="M279.95,192.3v-0.24c0-24.16,18.21-44,44.32-44,16,0,25.62,5.34,33.51,13.11l-11.9,13.72c-6.56-5.95-13.24-9.59-21.74-9.59-14.33,0-24.65,11.9-24.65,26.47v0.24c0,14.57,10.08,26.71,24.65,26.71,9.71,0,15.66-3.89,22.34-10l11.9,12c-8.74,9.35-18.46,15.18-34.85,15.18C298.52,236,279.95,216.71,279.95,192.3Z" transform="translate(-40.48 -145.65)" fill="#000001"/>
        <path d="M360.21,145.92h18.46V178.7c4.25-5.46,9.71-10.44,19.06-10.44,14,0,22.1,9.23,22.1,24.16v42.13H401.37V198.25c0-8.74-4.13-13.24-11.17-13.24s-11.54,4.49-11.54,13.24v36.31H360.21V145.92Z" transform="translate(-40.48 -145.65)" fill="#000001"/>
        <path d="M422.26,215.86v-0.24c0-14.21,10.81-20.76,26.23-20.76a46.25,46.25,0,0,1,15.91,2.67v-1.09c0-7.65-4.74-11.9-14-11.9-7,0-12,1.34-18,3.52L427.84,174a57.42,57.42,0,0,1,25.26-5.22c10.08,0,17.36,2.67,22,7.29,4.86,4.86,7,12,7,20.76v37.76H464.27v-7c-4.49,5-10.69,8.26-19.67,8.26C432.33,235.77,422.26,228.73,422.26,215.86Zm42.38-4.25v-3.28a28.62,28.62,0,0,0-11.78-2.43c-7.89,0-12.75,3.16-12.75,9v0.24c0,5,4.13,7.89,10.08,7.89C458.81,223,464.63,218.29,464.63,211.61Z" transform="translate(-40.48 -145.65)" fill="#000001"/>
        <path d="M486.13,169.48h18.46v13.11c3.76-9,9.84-14.81,20.76-14.33v19.31h-1c-12.26,0-19.79,7.41-19.79,22.95v24H486.13V169.48Z" transform="translate(-40.48 -145.65)" fill="#000001"/>
        <path d="M529,169.48h18.46v9.23c4.25-5.46,9.84-10.44,19.19-10.44,8.5,0,14.94,3.76,18.34,10.32,5.71-6.68,12.51-10.32,21.37-10.32,13.72,0,22,8.26,22,23.92v42.38H609.86V198.25c0-8.74-3.89-13.24-10.81-13.24s-11.17,4.49-11.17,13.24v36.31H569.43V198.25c0-8.74-3.89-13.24-10.81-13.24s-11.17,4.49-11.17,13.24v36.31H529V169.48Z" transform="translate(-40.48 -145.65)" fill="#000001"/>
      </g>
      <g>
        <path d="M663.59,149.31H728V166H682.26v17.32h40.26v16.71H682.26V218h46.36V234.7h-65v-85.4Z" transform="translate(-40.48 -145.65)" fill="#000001"/>
        <path d="M727,202.13v-0.24c0-21.84,14.27-33.79,29.77-33.79,9.88,0,16,4.51,20.37,9.76V145.65h18.54V234.7H777.17v-9.39c-4.51,6.1-10.74,10.61-20.37,10.61C741.55,235.92,727,224,727,202.13Zm50.38,0v-0.24c0-10.86-7.2-18.05-15.86-18.05s-16,7.08-16,18.05v0.24c0,10.86,7.32,18.05,16,18.05S777.42,213,777.42,202.13Z" transform="translate(-40.48 -145.65)" fill="#000001"/>
        <path d="M799.62,211.65V169.31h18.54v36.48c0,8.78,4.15,13.3,11.22,13.3S841,214.57,841,205.79V169.31h18.54V234.7H841v-9.27c-4.27,5.49-9.76,10.49-19.15,10.49C807.8,235.92,799.62,226.65,799.62,211.65Z" transform="translate(-40.48 -145.65)" fill="#000001"/>
      </g>
    </g>
  </g>
</svg>
