<svg id="Layer_1" data-name="Layer 1" xmlns="http://www.w3.org/2000/svg" xmlns:xlink="http://www.w3.org/1999/xlink" viewBox="0 0 128 128">
  <defs>
    <linearGradient id="linear-gradient" x1="75.15" y1="5346.58" x2="85.12" y2="5371.42" gradientTransform="matrix(1, 0, 0, -1, 0, 5378.82)" gradientUnits="userSpaceOnUse">
      <stop offset="0" stop-color="#9775f8"/>
      <stop offset="0.95" stop-color="#22d88f"/>
    </linearGradient>
    <linearGradient id="linear-gradient-2" x1="31.21" y1="5312.56" x2="44.16" y2="5256.16" gradientTransform="matrix(1, 0, 0, -1, 0, 5378.82)" gradientUnits="userSpaceOnUse">
      <stop offset="0" stop-color="#9775f8"/>
      <stop offset="0.21" stop-color="#689cce"/>
      <stop offset="0.42" stop-color="#42bdac"/>
      <stop offset="0.59" stop-color="#2bd197"/>
      <stop offset="0.69" stop-color="#22d88f"/>
    </linearGradient>
    <linearGradient id="linear-gradient-3" x1="8.91" y1="5316.54" x2="121.07" y2="5254.61" gradientTransform="matrix(1, 0, 0, -1, 0, 5378.82)" gradientUnits="userSpaceOnUse">
      <stop offset="0.08" stop-color="#22d88f"/>
      <stop offset="0.72" stop-color="#9775f8"/>
    </linearGradient>
    <linearGradient id="linear-gradient-4" y1="5329.82" x2="112.72" y2="5329.82" gradientTransform="matrix(1, 0, 0, -1, 0, 5378.82)" gradientUnits="userSpaceOnUse">
      <stop offset="0.08" stop-color="#22d88f"/>
      <stop offset="0.27" stop-color="#5ab0b4"/>
      <stop offset="0.56" stop-color="#b86cf2"/>
      <stop offset="1" stop-color="#ff59e6"/>
    </linearGradient>
  </defs>
  <title>icon_DataGrip</title>
  <g>
    <polygon points="119.8 19.8 128 72.2 97 90.4 91 60.6 119.8 19.8" fill="#9775f8"/>
    <polygon points="119.8 19.8 74 0 35.6 32 91 60.6 119.8 19.8" fill="url(#linear-gradient)"/>
    <polygon points="86.4 128 33 55.8 17 66.6 1.2 114.2 86.4 128" fill="url(#linear-gradient-2)"/>
    <polygon points="96.6 91.6 59 67 0 59 86.4 128 96.6 91.6" fill="url(#linear-gradient-3)"/>
    <polygon points="0 0.8 0 59 111 97.2 119.8 19.8 0 0.8" fill="url(#linear-gradient-4)"/>
  </g>
  <g>
    <rect x="24" y="24" width="80" height="80"/>
    <g>
      <g>
        <path d="M32.11,34.4H45c10.41,0,17.61,7.15,17.61,16.47V51c0,9.32-7.19,16.56-17.61,16.56H32.11V34.4ZM39.4,41V61H45c6,0,10-4,10-9.89V51c0-5.87-4-10-10-10H39.4Z" transform="translate(0 0)" fill="#fff"/>
        <path d="M63.93,51.06V51A17,17,0,0,1,81.3,33.83c6,0,9.56,1.61,13,4.54l-4.59,5.54a12.2,12.2,0,0,0-8.66-3.36c-5.3,0-9.51,4.68-9.51,10.32V51c0,6.06,4.16,10.51,10,10.51a11.63,11.63,0,0,0,6.86-2V54.75H81.11V48.46H95.5V62.84A21.5,21.5,0,0,1,81.35,68.1C71,68.1,63.93,60.86,63.93,51.06Z" transform="translate(0 0)" fill="#fff"/>
      </g>
      <rect x="31.36" y="88.99" width="30" height="5" fill="#fff"/>
    </g>
  </g>
</svg>
