<svg id="Logo" xmlns="http://www.w3.org/2000/svg" viewBox="0 0 982 182.52">
  <title>logo_DataGrip</title>
  <g>
    <rect y="6.39" width="143.89" height="143.89" fill="#000001"/>
    <rect x="13.29" y="123.3" width="53.96" height="8.99" fill="#fff"/>
    <g>
      <path d="M13.35,24.3h14c11.29,0,19.09,7.75,19.09,17.86v0.1c0,10.11-7.8,18-19.09,18h-14V24.3Zm7.9,7.13V53.1h6.11c6.47,0,10.83-4.36,10.83-10.73v-0.1c0-6.36-4.36-10.83-10.83-10.83H21.25Z" fill="#fff"/>
      <path d="M47.85,42.37v-0.1A18.44,18.44,0,0,1,66.69,23.69c6.47,0,10.37,1.75,14.11,4.93l-5,6C73.06,32.31,70.59,31,66.43,31c-5.75,0-10.32,5.08-10.32,11.19v0.1c0,6.57,4.52,11.39,10.88,11.39a12.61,12.61,0,0,0,7.44-2.16V46.37h-8V39.55h15.6v15.6a23.32,23.32,0,0,1-15.35,5.7C55.55,60.85,47.85,53,47.85,42.37Z" fill="#fff"/>
    </g>
  </g>
  <g>
    <path d="M189.13,6.15h56c45.12,0,76.29,31,76.29,71.37v0.41c0,40.4-31.17,71.78-76.29,71.78h-56V6.15Zm31.58,28.51V121.2h24.4c25.84,0,43.27-17.43,43.27-42.86V77.93c0-25.43-17.43-43.27-43.27-43.27h-24.4Z" fill="#000001"/>
    <path d="M319.57,118.13v-0.41c0-24,18.25-35.07,44.3-35.07a78.09,78.09,0,0,1,26.87,4.51V85.31c0-12.92-8-20.1-23.58-20.1-11.89,0-20.3,2.26-30.35,5.95L329,47.37c12.1-5.33,24-8.82,42.66-8.82,17,0,29.33,4.51,37.12,12.3,8.2,8.2,11.89,20.3,11.89,35.07v63.78H390.53V137.82c-7.59,8.41-18,13.94-33.22,13.94C336.59,151.76,319.57,139.87,319.57,118.13Zm71.57-7.18v-5.54a48.34,48.34,0,0,0-19.89-4.1c-13.33,0-21.53,5.33-21.53,15.18v0.41c0,8.41,7,13.33,17,13.33C381.3,130.23,391.14,122.23,391.14,110.95Z" fill="#000001"/>
    <path d="M435,118.54V66.45H421.91V39.79H435V11.69h31.17v28.1H492V66.45H466.21v47c0,7.18,3.08,10.66,10,10.66a31.69,31.69,0,0,0,15.38-3.9v25c-6.56,3.9-14.15,6.36-24.61,6.36C448,151.56,435,144,435,118.54Z" fill="#000001"/>
    <path d="M495.12,118.13v-0.41c0-24,18.25-35.07,44.3-35.07a78.09,78.09,0,0,1,26.87,4.51V85.31c0-12.92-8-20.1-23.58-20.1-11.89,0-20.3,2.26-30.35,5.95l-7.79-23.79c12.1-5.33,24-8.82,42.66-8.82,17,0,29.33,4.51,37.12,12.3,8.2,8.2,11.89,20.3,11.89,35.07v63.78H566.08V137.82c-7.59,8.41-18,13.94-33.22,13.94C512.15,151.76,495.12,139.87,495.12,118.13Zm71.57-7.18v-5.54a48.34,48.34,0,0,0-19.89-4.1c-13.33,0-21.53,5.33-21.53,15.18v0.41c0,8.41,7,13.33,17,13.33C556.85,130.23,566.7,122.23,566.7,110.95Z" fill="#000001"/>
    <path d="M602.18,78.34V77.93c0-40.81,31.79-74.24,75.26-74.24,25.84,0,41.43,7,56.4,19.69L714,47.37C702.88,38.15,693,32.81,676.42,32.81c-23,0-41.22,20.3-41.22,44.71v0.41c0,26.25,18,45.53,43.48,45.53,11.48,0,21.74-2.87,29.74-8.61V94.34H676.63V67.06H739v62.34c-14.77,12.51-35.07,22.76-61.32,22.76C632.94,152.17,602.18,120.79,602.18,78.34Z" fill="#000001"/>
    <path d="M748.2,39.79h31.17V61.93c6.36-15.18,16.61-25,35.07-24.2V70.34h-1.64c-20.71,0-33.43,12.51-33.43,38.76v40.61H748.2V39.79Z" fill="#000001"/>
    <path d="M821.83,0h32.81V27.69H821.83V0Zm0.82,39.79h31.17V149.71H822.65V39.79Z" fill="#000001"/>
    <path d="M866.54,39.79h31.17V55.58c7.59-10.25,18-17.84,34.25-17.84,25.63,0,50,20.1,50,56.81V95c0,36.71-24,56.81-50,56.81-16.61,0-26.87-7.59-34.25-16.41v47.17H866.54V39.79ZM950.83,95V94.54c0-18.25-12.3-30.35-26.87-30.35S897.3,76.29,897.3,94.54V95c0,18.25,12.1,30.35,26.66,30.35S950.83,113.41,950.83,95Z" fill="#000001"/>
  </g>
</svg>
