<svg id="Logo" xmlns="http://www.w3.org/2000/svg" viewBox="0 0 870 62.73">
  <title>logo_MPS</title>
  <g>
    <g>
      <path d="M76.46,170.74H88.13l12.93,20.79L114,170.74h11.66v49.17H114.89v-32.1l-13.84,21h-0.28L87.07,188v31.89H76.46V170.74Z" transform="translate(-15 -168.63)"/>
      <path d="M126.7,201.3v-0.14c0-10.75,7.66-19.6,18.61-19.6,12.58,0,18.33,9.76,18.33,20.44,0,0.84-.07,1.83-0.14,2.81H137.3c1.05,4.85,4.43,7.38,9.2,7.38,3.58,0,6.18-1.12,9.13-3.86l6.11,5.41c-3.51,4.36-8.57,7-15.39,7C135.06,220.76,126.7,212.82,126.7,201.3Zm26.55-3.16c-0.63-4.78-3.44-8-7.94-8s-7.31,3.16-8.15,8h16.09Z" transform="translate(-15 -168.63)"/>
      <path d="M167,209.24V191.39h-4.5v-9.13H167v-9.62h10.68v9.62h8.85v9.13h-8.85v16.09c0,2.46,1.05,3.65,3.44,3.65a10.87,10.87,0,0,0,5.27-1.33v8.57a15.75,15.75,0,0,1-8.43,2.18C171.38,220.55,167,217.95,167,209.24Z" transform="translate(-15 -168.63)"/>
      <path d="M187.25,209.1V209c0-8.22,6.25-12,15.17-12a26.75,26.75,0,0,1,9.2,1.54v-0.63c0-4.43-2.74-6.88-8.08-6.88a27.72,27.72,0,0,0-10.4,2l-2.67-8.15a33.21,33.21,0,0,1,14.61-3c5.83,0,10,1.54,12.72,4.21s4.07,7,4.07,12v21.85H211.56v-4.07a14.48,14.48,0,0,1-11.38,4.78C193.09,220.62,187.25,216.54,187.25,209.1Zm24.52-2.46v-1.9a16.56,16.56,0,0,0-6.81-1.4c-4.57,0-7.38,1.83-7.38,5.2v0.14c0,2.88,2.39,4.57,5.83,4.57C208.4,213.24,211.77,210.5,211.77,206.64Z" transform="translate(-15 -168.63)"/>
      <path d="M240.15,170.74h20.09c11.73,0,18.83,7,18.83,17v0.14c0,11.38-8.85,17.28-19.88,17.28H251v14.75H240.15V170.74Zm19.39,24.8c5.41,0,8.57-3.23,8.57-7.45V188c0-4.85-3.37-7.45-8.78-7.45H251v15h8.57Z" transform="translate(-15 -168.63)"/>
      <path d="M280.2,182.26h10.68v7.59c2.18-5.2,5.69-8.57,12-8.29v11.17h-0.56c-7.1,0-11.45,4.29-11.45,13.28v13.91H280.2V182.26Z" transform="translate(-15 -168.63)"/>
      <path d="M302,201.3v-0.14c0-10.82,8.71-19.6,20.44-19.6s20.3,8.64,20.3,19.46v0.14c0,10.82-8.71,19.6-20.44,19.6S302,212.12,302,201.3Zm30.21,0v-0.14c0-5.55-4-10.4-9.91-10.4-6.11,0-9.76,4.71-9.76,10.26v0.14c0,5.55,4,10.4,9.91,10.4C328.53,211.56,332.18,206.85,332.18,201.3Z" transform="translate(-15 -168.63)"/>
      <path d="M345.53,227.36l3.65-8a24.56,24.56,0,0,0,12.72,3.44c7.31,0,10.75-3.51,10.75-10.26v-1.83c-3.16,3.79-6.6,6.11-12.29,6.11-8.78,0-16.72-6.39-16.72-17.56v-0.14c0-11.24,8.08-17.56,16.72-17.56,5.83,0,9.27,2.46,12.15,5.62v-4.92h10.68v29.15c0,6.74-1.61,11.66-4.78,14.82-3.51,3.51-8.92,5.06-16.23,5.06A35.74,35.74,0,0,1,345.53,227.36Zm27.12-28.1v-0.14c0-5.13-4-8.71-9.2-8.71s-9.13,3.58-9.13,8.71v0.14c0,5.2,3.93,8.71,9.13,8.71S372.65,204.39,372.65,199.26Z" transform="translate(-15 -168.63)"/>
      <path d="M385.44,182.26h10.68v7.59c2.18-5.2,5.69-8.57,12-8.29v11.17h-0.56c-7.1,0-11.45,4.29-11.45,13.28v13.91H385.44V182.26Z" transform="translate(-15 -168.63)"/>
      <path d="M405.81,209.1V209c0-8.22,6.25-12,15.17-12a26.75,26.75,0,0,1,9.2,1.54v-0.63c0-4.43-2.74-6.88-8.08-6.88a27.72,27.72,0,0,0-10.4,2L409,184.86a33.21,33.21,0,0,1,14.61-3c5.83,0,10,1.54,12.72,4.21s4.07,7,4.07,12v21.85H430.12v-4.07a14.48,14.48,0,0,1-11.38,4.78C411.64,220.62,405.81,216.54,405.81,209.1Zm24.52-2.46v-1.9a16.56,16.56,0,0,0-6.81-1.4c-4.57,0-7.38,1.83-7.38,5.2v0.14c0,2.88,2.39,4.57,5.83,4.57C427,213.24,430.33,210.5,430.33,206.64Z" transform="translate(-15 -168.63)"/>
      <path d="M442.55,182.26h10.68v5.34c2.46-3.16,5.69-6,11.1-6,4.92,0,8.64,2.18,10.61,6,3.3-3.86,7.24-6,12.36-6,7.94,0,12.72,4.78,12.72,13.84v24.52H489.34v-21c0-5.06-2.25-7.66-6.25-7.66s-6.46,2.6-6.46,7.66v21H465.94v-21c0-5.06-2.25-7.66-6.25-7.66s-6.46,2.6-6.46,7.66v21H442.55V182.26Z" transform="translate(-15 -168.63)"/>
      <path d="M502.13,182.26H512.8v5.34c2.46-3.16,5.69-6,11.1-6,4.92,0,8.64,2.18,10.61,6,3.3-3.86,7.24-6,12.36-6,7.94,0,12.72,4.78,12.72,13.84v24.52H548.91v-21c0-5.06-2.25-7.66-6.25-7.66s-6.46,2.6-6.46,7.66v21H525.52v-21c0-5.06-2.25-7.66-6.25-7.66s-6.46,2.6-6.46,7.66v21H502.13V182.26Z" transform="translate(-15 -168.63)"/>
      <path d="M561.84,168.63h11.24v9.48H561.84v-9.48Zm0.28,13.63H572.8v37.65H562.12V182.26Z" transform="translate(-15 -168.63)"/>
      <path d="M575.61,182.26h10.68v5.34c2.46-3.16,5.62-6,11-6,8.08,0,12.79,5.34,12.79,14v24.38H599.43v-21c0-5.06-2.39-7.66-6.46-7.66s-6.67,2.6-6.67,7.66v21H575.61V182.26Z" transform="translate(-15 -168.63)"/>
      <path d="M613.48,227.36l3.65-8a24.56,24.56,0,0,0,12.72,3.44c7.31,0,10.75-3.51,10.75-10.26v-1.83c-3.16,3.79-6.6,6.11-12.29,6.11-8.78,0-16.72-6.39-16.72-17.56v-0.14c0-11.24,8.08-17.56,16.72-17.56,5.83,0,9.27,2.46,12.15,5.62v-4.92h10.68v29.15c0,6.74-1.61,11.66-4.78,14.82-3.51,3.51-8.92,5.06-16.23,5.06A35.74,35.74,0,0,1,613.48,227.36Zm27.12-28.1v-0.14c0-5.13-4-8.71-9.2-8.71s-9.13,3.58-9.13,8.71v0.14c0,5.2,3.93,8.71,9.13,8.71S640.59,204.39,640.59,199.26Z" transform="translate(-15 -168.63)"/>
      <path d="M665.11,212.75l6.39-7.66c4.43,3.65,9.06,6,14.68,6,4.43,0,7.1-1.76,7.1-4.64v-0.14c0-2.74-1.69-4.14-9.91-6.25-9.91-2.53-16.3-5.27-16.3-15v-0.14c0-8.92,7.17-14.82,17.21-14.82a28.47,28.47,0,0,1,18.26,6.25l-5.62,8.15c-4.35-3-8.64-4.85-12.79-4.85s-6.32,1.9-6.32,4.29V184c0,3.23,2.11,4.29,10.61,6.46,10,2.6,15.6,6.18,15.6,14.75v0.14c0,9.76-7.45,15.24-18.05,15.24A31.29,31.29,0,0,1,665.11,212.75Z" transform="translate(-15 -168.63)"/>
      <path d="M727.7,182.26h11.1l-14.47,38.57c-2.88,7.66-6,10.54-12.36,10.54a17.69,17.69,0,0,1-9.48-2.6l3.58-7.73a9.7,9.7,0,0,0,4.57,1.48c1.83,0,2.81-.56,3.72-2.46L699.6,182.26h11.31l8.57,25.64Z" transform="translate(-15 -168.63)"/>
      <path d="M734.66,214.93l4.57-7c4.07,3,8.36,4.5,11.87,4.5,3.09,0,4.5-1.12,4.5-2.81v-0.14c0-2.32-3.65-3.09-7.8-4.36-5.27-1.54-11.24-4-11.24-11.31v-0.14c0-7.66,6.18-11.94,13.77-11.94a26.06,26.06,0,0,1,14,4.35l-4.07,7.38c-3.72-2.18-7.45-3.51-10.19-3.51s-3.93,1.12-3.93,2.6v0.14c0,2.11,3.58,3.09,7.66,4.5,5.27,1.76,11.38,4.29,11.38,11.17v0.14c0,8.36-6.25,12.15-14.4,12.15A26.38,26.38,0,0,1,734.66,214.93Z" transform="translate(-15 -168.63)"/>
      <path d="M769.72,209.24V191.39h-4.5v-9.13h4.5v-9.62H780.4v9.62h8.85v9.13H780.4v16.09c0,2.46,1.05,3.65,3.44,3.65a10.87,10.87,0,0,0,5.27-1.33v8.57a15.75,15.75,0,0,1-8.43,2.18C774.14,220.55,769.72,217.95,769.72,209.24Z" transform="translate(-15 -168.63)"/>
      <path d="M789,201.3v-0.14c0-10.75,7.66-19.6,18.61-19.6,12.58,0,18.33,9.76,18.33,20.44,0,0.84-.07,1.83-0.14,2.81h-26.2c1.05,4.85,4.43,7.38,9.2,7.38,3.58,0,6.18-1.12,9.13-3.86l6.11,5.41c-3.51,4.36-8.57,7-15.39,7C797.33,220.76,789,212.82,789,201.3Zm26.55-3.16c-0.63-4.78-3.44-8-7.94-8s-7.31,3.16-8.15,8h16.09Z" transform="translate(-15 -168.63)"/>
      <path d="M827.54,182.26h10.68v5.34c2.46-3.16,5.69-6,11.1-6,4.92,0,8.64,2.18,10.61,6,3.3-3.86,7.24-6,12.36-6,7.94,0,12.72,4.78,12.72,13.84v24.52H874.32v-21c0-5.06-2.25-7.66-6.25-7.66s-6.46,2.6-6.46,7.66v21H850.93v-21c0-5.06-2.25-7.66-6.25-7.66s-6.46,2.6-6.46,7.66v21H827.54V182.26Z" transform="translate(-15 -168.63)"/>
    </g>
    <g>
      <rect y="2.11" width="49.17" height="49.17"/>
      <rect x="4.61" y="42.06" width="18.44" height="3.07" fill="#fff"/>
      <polygon points="4.54 8.37 8.03 8.37 11.9 14.6 15.77 8.37 19.26 8.37 19.26 23.1 16.04 23.1 16.04 13.49 11.9 19.77 11.81 19.77 7.71 13.55 7.71 23.1 4.54 23.1 4.54 8.37" fill="#fff"/>
      <path d="M35.95,177h6c3.51,0,5.64,2.08,5.64,5.09v0c0,3.41-2.65,5.18-6,5.18H39.19v4.41H35.95V177Zm5.8,7.43a2.28,2.28,0,0,0,2.57-2.23v0c0-1.45-1-2.23-2.63-2.23h-2.5v4.5h2.57Z" transform="translate(-15 -168.63)" fill="#fff"/>
      <path d="M48.4,189.59l1.92-2.29a6.76,6.76,0,0,0,4.39,1.79c1.33,0,2.13-.53,2.13-1.39v0c0-.82-0.5-1.24-3-1.87-3-.76-4.88-1.58-4.88-4.5v0c0-2.67,2.15-4.44,5.15-4.44a8.52,8.52,0,0,1,5.47,1.87l-1.68,2.44a6.89,6.89,0,0,0-3.83-1.45c-1.24,0-1.89.57-1.89,1.28v0c0,1,.63,1.29,3.18,1.94,3,0.78,4.67,1.85,4.67,4.42v0c0,2.92-2.23,4.56-5.41,4.56a9.37,9.37,0,0,1-6.25-2.35" transform="translate(-15 -168.63)" fill="#fff"/>
    </g>
  </g>
</svg>
