<svg id="Layer_1" data-name="Layer 1" xmlns="http://www.w3.org/2000/svg" xmlns:xlink="http://www.w3.org/1999/xlink" viewBox="0 0 128 128">
  <defs>
    <linearGradient id="linear-gradient" x1="37.44" y1="-683.18" x2="59.36" y2="-774.93" gradientTransform="matrix(1, 0, 0, -1, 0, -648.86)" gradientUnits="userSpaceOnUse">
      <stop offset="0" stop-color="#7866ff"/>
      <stop offset="0.02" stop-color="#7e64fe"/>
      <stop offset="0.19" stop-color="#aa56f3"/>
      <stop offset="0.35" stop-color="#c94cec"/>
      <stop offset="0.48" stop-color="#dc45e8"/>
      <stop offset="0.57" stop-color="#e343e6"/>
      <stop offset="0.64" stop-color="#e859bc"/>
      <stop offset="0.82" stop-color="#f48f58"/>
      <stop offset="0.94" stop-color="#fcb019"/>
      <stop offset="1" stop-color="#ffbd00"/>
    </linearGradient>
    <linearGradient id="linear-gradient-2" x1="90.4" y1="-724.62" x2="59.87" y2="-662.57" gradientTransform="matrix(1, 0, 0, -1, 0, -648.86)" gradientUnits="userSpaceOnUse">
      <stop offset="0" stop-color="#7866ff"/>
      <stop offset="0.2" stop-color="#965cf8"/>
      <stop offset="0.64" stop-color="#e343e6"/>
      <stop offset="0.97" stop-color="#ffbd00"/>
    </linearGradient>
    <linearGradient id="linear-gradient-3" x1="48.2" y1="-746.87" x2="66.23" y2="-704.11" gradientTransform="matrix(1, 0, 0, -1, 0, -648.86)" gradientUnits="userSpaceOnUse">
      <stop offset="0.12" stop-color="#e343e6"/>
      <stop offset="0.21" stop-color="#c84cec"/>
      <stop offset="0.34" stop-color="#ab55f3"/>
      <stop offset="0.47" stop-color="#955df8"/>
      <stop offset="0.62" stop-color="#8562fc"/>
      <stop offset="0.78" stop-color="#7b65fe"/>
      <stop offset="1" stop-color="#7866ff"/>
    </linearGradient>
  </defs>
  <title>icon_dotMemory</title>
  <g>
    <polygon points="14.6 119.2 0.2 68.6 94.4 82.6 81 128 14.6 119.2" fill="url(#linear-gradient)"/>
    <polygon points="43 0.2 77 9.8 115.6 0 128 84.6 24.4 68.6 43 0.2" fill="url(#linear-gradient-2)"/>
    <polygon points="128 84.4 123.2 52.8 46.8 26.2 0.2 36.2 0 68.8 90.6 93.8 128 84.4" fill="url(#linear-gradient-3)"/>
  </g>
  <g>
    <rect x="24" y="24" width="80" height="80"/>
    <rect x="31.6" y="89" width="30" height="5" fill="#fff"/>
    <path d="M31.4,34.4H44.2c10.4,0,17.6,7.2,17.6,16.4h0c0,9.4-7.2,16.6-17.6,16.6H31.4v-33ZM38.6,41V61H44c6,0,10-4,10-10h0A9.55,9.55,0,0,0,44,41H38.6Z" fill="#fff"/>
    <polygon points="63.6 34.4 71.6 34.4 80.2 48.4 88.8 34.4 96.6 34.4 96.6 67.4 89.4 67.4 89.4 46 80.2 60 80 60 70.8 46 70.8 67.4 63.6 67.4 63.6 34.4" fill="#fff"/>
  </g>
</svg>
