<svg id="Logo" xmlns="http://www.w3.org/2000/svg" viewBox="0 0 800 119.79">
  <title>logo_dotMemory</title>
  <g>
    <g>
      <rect y="3.93" width="93.89" height="93.89"/>
      <path d="M58.79,155.76h9c7.37,0,12.47,5.06,12.47,11.67v0.07c0,6.6-5.1,11.73-12.47,11.73h-9V155.76ZM64,160.42v14.15H67.8a6.69,6.69,0,0,0,7.07-7V167.5a6.74,6.74,0,0,0-7.07-7.07H64Z" transform="translate(-50 -140.1)" fill="#fff"/>
      <polygon points="31.73 15.72 37.26 15.72 43.39 25.58 49.51 15.72 55.04 15.72 55.04 39.03 49.94 39.03 49.94 23.82 43.39 33.77 43.25 33.77 36.76 23.91 36.76 39.03 31.73 39.03 31.73 15.72" fill="#fff"/>
      <rect x="8.8" y="80.22" width="35.38" height="5.87" fill="#fff"/>
    </g>
    <g>
      <path d="M165.49,202.21v-0.27c0-24,15.69-37.16,32.73-37.16,10.87,0,17.57,5,22.4,10.73V140.1H241V238H220.62V227.7c-5,6.71-11.8,11.67-22.4,11.67C181.45,239.37,165.49,226.23,165.49,202.21Zm55.4,0v-0.27c0-11.94-7.91-19.85-17.44-19.85s-17.57,7.78-17.57,19.85v0.27c0,11.94,8,19.85,17.57,19.85S220.89,214.15,220.89,202.21Z" transform="translate(-50 -140.1)"/>
      <path d="M243.42,202.48v-0.27c0-20.66,16.64-37.43,39-37.43s38.77,16.5,38.77,37.16v0.27c0,20.66-16.63,37.43-39,37.43S243.42,223.14,243.42,202.48Zm57.68,0v-0.27c0-10.6-7.65-19.85-18.92-19.85-11.67,0-18.65,9-18.65,19.58v0.27c0,10.6,7.65,19.85,18.91,19.85C294.13,222.07,301.11,213.08,301.11,202.48Z" transform="translate(-50 -140.1)"/>
      <path d="M327,217.64V183.57H318.4V166.13H327V147.75h20.39v18.38h16.9v17.44h-16.9v30.72c0,4.7,2,7,6.57,7A20.73,20.73,0,0,0,364,218.71v16.37a30.06,30.06,0,0,1-16.1,4.16C335.44,239.24,327,234.27,327,217.64Z" transform="translate(-50 -140.1)"/>
      <path d="M368.3,144.13h22.27l24.68,39.71,24.68-39.71h22.27V238H441.68V176.73l-26.43,40.11h-0.54l-26.16-39.71V238H368.3v-93.9Z" transform="translate(-50 -140.1)"/>
      <path d="M465,202.48v-0.27c0-20.52,14.62-37.43,35.55-37.43,24,0,35,18.65,35,39,0,1.61-.13,3.49-0.27,5.37h-50c2,9.26,8.45,14.09,17.57,14.09,6.84,0,11.8-2.15,17.44-7.38L532,226.23c-6.71,8.32-16.37,13.41-29.38,13.41C481,239.64,465,224.48,465,202.48Zm50.71-6c-1.21-9.12-6.57-15.29-15.16-15.29s-14,6-15.56,15.29h30.72Z" transform="translate(-50 -140.1)"/>
      <path d="M538.12,166.13h20.39v10.2c4.7-6,10.87-11.54,21.19-11.54,9.39,0,16.5,4.16,20.26,11.4,6.31-7.38,13.82-11.4,23.61-11.4,15.16,0,24.28,9.12,24.28,26.43V238H627.47V197.92c0-9.66-4.29-14.62-11.94-14.62s-12.34,5-12.34,14.62V238H582.79V197.92c0-9.66-4.29-14.62-11.94-14.62s-12.34,5-12.34,14.62V238H538.12v-71.9Z" transform="translate(-50 -140.1)"/>
      <path d="M649.46,202.48v-0.27c0-20.66,16.63-37.43,39-37.43s38.77,16.5,38.77,37.16v0.27c0,20.66-16.63,37.43-39,37.43S649.46,223.14,649.46,202.48Zm57.68,0v-0.27c0-10.6-7.65-19.85-18.91-19.85-11.67,0-18.65,9-18.65,19.58v0.27c0,10.6,7.65,19.85,18.91,19.85C700.17,222.07,707.14,213.08,707.14,202.48Z" transform="translate(-50 -140.1)"/>
      <path d="M729.67,166.13h20.39v14.49c4.16-9.93,10.87-16.37,22.94-15.83v21.33h-1.07c-13.55,0-21.87,8.18-21.87,25.35V238H729.67v-71.9Z" transform="translate(-50 -140.1)"/>
      <path d="M828.8,166.13H850l-27.63,73.65c-5.5,14.62-11.4,20.12-23.61,20.12a33.75,33.75,0,0,1-18.11-5l6.84-14.76a18.53,18.53,0,0,0,8.72,2.82c3.49,0,5.37-1.07,7.11-4.69l-28.17-72.17h21.6l16.37,49Z" transform="translate(-50 -140.1)"/>
    </g>
  </g>
</svg>
