<svg id="Logo" xmlns="http://www.w3.org/2000/svg" viewBox="0 0 800 144.77">
  <title>logo_TeamCity</title>
  <g>
    <g>
      <path d="M223.8,155.5H189.28v-23h94v23H248.77V246h-25V155.5Z" transform="translate(-50 -127.62)"/>
      <path d="M257.52,203v-0.32c0-24.8,17.67-45.23,43-45.23,29,0,42.31,22.53,42.31,47.17,0,1.95-.16,4.21-0.32,6.48H282c2.43,11.19,10.21,17,21.24,17,8.27,0,14.27-2.59,21.07-8.92l14.1,12.48c-8.11,10.05-19.78,16.21-35.5,16.21C276.81,247.9,257.52,229.59,257.52,203Zm61.28-7.3c-1.46-11-7.94-18.48-18.32-18.48-10.21,0-16.86,7.3-18.8,18.48H318.8Z" transform="translate(-50 -127.62)"/>
      <path d="M344.41,221v-0.32c0-19,14.43-27.72,35-27.72a61.72,61.72,0,0,1,21.24,3.57v-1.46c0-10.21-6.32-15.89-18.64-15.89-9.4,0-16,1.78-24,4.7l-6.16-18.8c9.56-4.21,19-7,33.72-7,13.46,0,23.18,3.57,29.34,9.73,6.48,6.48,9.4,16,9.4,27.72V246H400.5v-9.4c-6,6.65-14.27,11-26.26,11C357.86,247.58,344.41,238.18,344.41,221ZM401,215.32v-4.38a38.21,38.21,0,0,0-15.72-3.24c-10.54,0-17,4.21-17,12V220c0,6.65,5.51,10.54,13.46,10.54C393.2,230.56,401,224.24,401,215.32Z" transform="translate(-50 -127.62)"/>
      <path d="M429.34,159.07H454v12.32c5.67-7.3,13.13-13.94,25.61-13.94,11.35,0,19.94,5,24.48,13.78,7.62-8.92,16.7-13.78,28.53-13.78,18.32,0,29.34,11,29.34,31.94V246H537.31V197.49c0-11.67-5.19-17.67-14.43-17.67s-14.91,6-14.91,17.67V246H483.33V197.49c0-11.67-5.19-17.67-14.43-17.67s-14.91,6-14.91,17.67V246H429.34V159.07Z" transform="translate(-50 -127.62)"/>
      <path d="M564.7,189.54v-0.32c0-32.26,24.32-58.68,59.17-58.68,21.4,0,34.21,7.13,44.74,17.51l-15.89,18.32c-8.75-7.94-17.67-12.81-29-12.81-19.13,0-32.91,15.89-32.91,35.34v0.32c0,19.45,13.46,35.66,32.91,35.66,13,0,20.91-5.19,29.83-13.29l15.89,16c-11.67,12.48-24.64,20.26-46.53,20.26C589.5,247.9,564.7,222.13,564.7,189.54Z" transform="translate(-50 -127.62)"/>
      <path d="M672,127.62h25.94V149.5H672V127.62Zm0.65,31.45H697.3V246H672.66V159.07Z" transform="translate(-50 -127.62)"/>
      <path d="M711.89,221.32V180.14H701.51V159.07h10.38V136.86h24.64v22.21H757v21.07H736.53v37.12c0,5.67,2.43,8.43,7.94,8.43a25.05,25.05,0,0,0,12.16-3.08v19.78c-5.19,3.08-11.19,5-19.45,5C722.1,247.42,711.89,241.42,711.89,221.32Z" transform="translate(-50 -127.62)"/>
      <path d="M824.39,159.07H850l-33.4,89c-6.65,17.67-13.78,24.32-28.53,24.32a40.79,40.79,0,0,1-21.89-6l8.27-17.83c3.24,1.95,7.3,3.4,10.54,3.4,4.21,0,6.48-1.3,8.59-5.67l-34-87.22h26.1l19.78,59.17Z" transform="translate(-50 -127.62)"/>
    </g>
    <g>
      <rect y="4.89" width="113.46" height="113.46"/>
      <polygon points="19.18 24.8 10.55 24.8 10.55 19.05 34.04 19.05 34.04 24.8 25.41 24.8 25.41 47.4 19.18 47.4 19.18 24.8" fill="#fff"/>
      <path d="M84.4,160.92v-0.08a14.41,14.41,0,0,1,14.78-14.66c5.35,0,8.55,1.78,11.18,4.37l-4,4.58c-2.19-2-4.41-3.2-7.25-3.2-4.78,0-8.22,4-8.22,8.83v0.08c0,4.86,3.36,8.91,8.22,8.91,3.24,0,5.23-1.3,7.45-3.32l4,4a14.5,14.5,0,0,1-11.63,5.06A14.31,14.31,0,0,1,84.4,160.92" transform="translate(-50 -127.62)" fill="#fff"/>
      <rect x="10.55" y="97.09" width="42.55" height="7.09" fill="#fff"/>
    </g>
  </g>
</svg>
