<svg id="Layer_1" data-name="Layer 1" xmlns="http://www.w3.org/2000/svg" xmlns:xlink="http://www.w3.org/1999/xlink" viewBox="0 0 128 128">
  <defs>
    <linearGradient id="linear-gradient" x1="19.93" y1="1118.74" x2="86.07" y2="1186.25" gradientTransform="translate(0 -1069.8)" gradientUnits="userSpaceOnUse">
      <stop offset="0.1" stop-color="#e343e6"/>
      <stop offset="0.11" stop-color="#d948e8"/>
      <stop offset="0.17" stop-color="#ac5def"/>
      <stop offset="0.22" stop-color="#876ff5"/>
      <stop offset="0.28" stop-color="#6b7df9"/>
      <stop offset="0.34" stop-color="#5687fc"/>
      <stop offset="0.39" stop-color="#4a8dfe"/>
      <stop offset="0.45" stop-color="#468fff"/>
      <stop offset="0.94" stop-color="#00caff"/>
    </linearGradient>
    <linearGradient id="linear-gradient-2" x1="17.63" y1="1171.68" x2="60.02" y2="1136.35" gradientTransform="translate(0 -1069.8)" gradientUnits="userSpaceOnUse">
      <stop offset="0.1" stop-color="#e343e6"/>
      <stop offset="0.12" stop-color="#de45e7"/>
      <stop offset="0.29" stop-color="#b951f0"/>
      <stop offset="0.46" stop-color="#9d5af6"/>
      <stop offset="0.63" stop-color="#8861fb"/>
      <stop offset="0.8" stop-color="#7c65fe"/>
      <stop offset="0.97" stop-color="#7866ff"/>
    </linearGradient>
    <linearGradient id="linear-gradient-3" x1="72.89" y1="1100.73" x2="103.06" y2="1162.4" gradientTransform="translate(0 -1069.8)" gradientUnits="userSpaceOnUse">
      <stop offset="0.2" stop-color="#e343e6"/>
      <stop offset="0.31" stop-color="#da46e8"/>
      <stop offset="0.49" stop-color="#c24eee"/>
      <stop offset="0.72" stop-color="#9a5bf7"/>
      <stop offset="0.89" stop-color="#7866ff"/>
    </linearGradient>
    <linearGradient id="linear-gradient-4" x1="36.35" y1="1103.3" x2="112.15" y2="1084.92" gradientTransform="translate(0 -1069.8)" gradientUnits="userSpaceOnUse">
      <stop offset="0.1" stop-color="#e343e6"/>
      <stop offset="0.17" stop-color="#da48e7"/>
      <stop offset="0.3" stop-color="#c157ea"/>
      <stop offset="0.46" stop-color="#996fee"/>
      <stop offset="0.65" stop-color="#6290f4"/>
      <stop offset="0.86" stop-color="#1cb9fc"/>
      <stop offset="0.94" stop-color="#00caff"/>
    </linearGradient>
  </defs>
  <title>icon_dotPeek</title>
  <g>
    <polygon points="81 38.2 9.6 55.4 0 74.6 25.8 128 90 116.8 81 38.2" fill="url(#linear-gradient)"/>
    <polygon points="120.4 57.6 69.8 25.6 0 40.4 0 74.6 114.4 97.4 120.4 57.6" fill="url(#linear-gradient-2)"/>
    <polygon points="128 57.2 72.4 0 29 13.2 43.2 56.6 114.4 97.4 128 57.2" fill="url(#linear-gradient-3)"/>
    <polygon points="118 35.8 113 0 93.8 0 72.4 0 29 13.2 43.2 56.6 118 35.8" fill="url(#linear-gradient-4)"/>
  </g>
  <g>
    <rect x="24" y="24" width="80" height="80"/>
    <rect x="31.4" y="89" width="30" height="5" fill="#fff"/>
    <g>
      <path d="M31.6,34.6H44.4C54.8,34.6,62,41.8,62,51h0c0,9.4-7.2,16.6-17.6,16.6H31.6v-33Zm7.2,6.6v20h5.6c6,0,10-4,10-9.8h0a9.55,9.55,0,0,0-9.08-10q-0.46,0-.92,0H38.8V41.2Z" transform="translate(0 0)" fill="#fff"/>
      <path d="M65,34.4H78.6c8,0,12.6,4.6,12.6,11.4h0c0,7.6-6,11.6-13.4,11.6H72.2v10H65v-33ZM78,51.26c3.6,0,5.8-2.26,5.8-5.06h0c0-3.2-2.2-5-6-5H72.2V51.4l5.8-.11v0Z" transform="translate(0 0)" fill="#fff"/>
    </g>
  </g>
</svg>
