<svg id="Logo" xmlns="http://www.w3.org/2000/svg" viewBox="0 0 800 131.54">
  <title>logo_dotPeek</title>
  <g>
    <g>
      <rect y="5.42" width="124.07" height="124.07"/>
      <g>
        <path d="M61.75,155.3H73.82c9.73,0,16.45,6.68,16.45,15.39v0.09c0,8.71-6.72,15.48-16.45,15.48H61.75v-31Zm6.81,6.15v18.66h5.26c5.57,0,9.33-3.76,9.33-9.24v-0.09a8.89,8.89,0,0,0-9.33-9.33H68.56Z" transform="translate(-50 -134.23)" fill="#fff"/>
        <path d="M93.11,155.2H105.8c7.4,0,11.88,4.39,11.88,10.73V166c0,7.18-5.59,10.91-12.55,10.91H99.94v9.31H93.11v-31Zm12.24,15.65c3.42,0,5.41-2,5.41-4.7v-0.09c0-3.06-2.13-4.7-5.54-4.7H99.94v9.49h5.41Z" transform="translate(-50 -134.23)" fill="#fff"/>
      </g>
      <rect x="11.63" y="106.24" width="46.53" height="7.75" fill="#fff"/>
    </g>
    <g>
      <path d="M202.62,216.31V216c0-31.73,20.74-49.11,43.26-49.11,14.36,0,23.22,6.56,29.6,14.18v-46.8h26.95V263.64H275.48V250c-6.56,8.86-15.6,15.42-29.6,15.42C223.72,265.42,202.62,248,202.62,216.31Zm73.22,0V216c0-15.78-10.46-26.24-23-26.24S229.57,200,229.57,216v0.35c0,15.78,10.64,26.24,23.22,26.24S275.84,232.09,275.84,216.31Z" transform="translate(-50 -134.23)"/>
      <path d="M305.61,216.66v-0.35c0-27.3,22-49.46,51.59-49.46,29.43,0,51.23,21.81,51.23,49.11v0.35c0,27.3-22,49.46-51.59,49.46C327.41,265.77,305.61,244,305.61,216.66Zm76.23,0v-0.35c0-14-10.1-26.24-25-26.24-15.42,0-24.64,11.88-24.64,25.88v0.35c0,14,10.1,26.24,25,26.24C372.62,242.55,381.84,230.67,381.84,216.66Z" transform="translate(-50 -134.23)"/>
      <path d="M416,236.7v-45H404.7v-23H416V144.33H443v24.29h22.34v23H443v40.6c0,6.2,2.66,9.22,8.69,9.22A27.39,27.39,0,0,0,465,238.11v21.63c-5.67,3.37-12.23,5.5-21.27,5.5C427.21,265.24,416,258.68,416,236.7Z" transform="translate(-50 -134.23)"/>
      <path d="M469.93,139.55h50.7c29.6,0,47.51,17.55,47.51,42.9v0.35c0,28.72-22.34,43.61-50.17,43.61H497.24v37.23h-27.3V139.55Zm48.93,62.58c13.65,0,21.63-8.15,21.63-18.79V183c0-12.23-8.51-18.79-22.16-18.79h-21.1v37.94h21.63Z" transform="translate(-50 -134.23)"/>
      <path d="M565.48,216.66v-0.35c0-27.12,19.32-49.46,47-49.46,31.73,0,46.27,24.64,46.27,51.59,0,2.13-.18,4.61-0.35,7.09H592.25c2.66,12.23,11.17,18.61,23.22,18.61,9,0,15.6-2.84,23-9.75L653.94,248c-8.86,11-21.63,17.73-38.82,17.73C586.58,265.77,565.48,245.74,565.48,216.66Zm67-8c-1.6-12.05-8.69-20.21-20-20.21-11.17,0-18.44,8-20.56,20.21h40.6Z" transform="translate(-50 -134.23)"/>
      <path d="M661.38,216.66v-0.35c0-27.12,19.32-49.46,47-49.46,31.73,0,46.27,24.64,46.27,51.59,0,2.13-.18,4.61-0.35,7.09H688.15c2.66,12.23,11.17,18.61,23.22,18.61,9,0,15.6-2.84,23-9.75L749.84,248C741,259,728.22,265.77,711,265.77,682.48,265.77,661.38,245.74,661.38,216.66Zm67-8c-1.6-12.05-8.69-20.21-20-20.21-11.17,0-18.44,8-20.56,20.21h40.6Z" transform="translate(-50 -134.23)"/>
      <path d="M758,134.23h26.95v69l31.56-34.57h32.26L812.59,206,850,263.64H818.8l-24.29-39-9.57,10.1v28.9H758V134.23Z" transform="translate(-50 -134.23)"/>
    </g>
  </g>
</svg>
