<svg id="Layer_1" data-name="Layer 1" xmlns="http://www.w3.org/2000/svg" xmlns:xlink="http://www.w3.org/1999/xlink" viewBox="0 0 128 128">
  <defs>
    <linearGradient id="linear-gradient" x1="67.74" y1="-750.58" x2="43.07" y2="-658.76" gradientTransform="matrix(1, 0, 0, -1, 0, -648.86)" gradientUnits="userSpaceOnUse">
      <stop offset="0.05" stop-color="#7866ff"/>
      <stop offset="0.14" stop-color="#8265fa"/>
      <stop offset="0.28" stop-color="#9c64ee"/>
      <stop offset="0.47" stop-color="#c661d9"/>
      <stop offset="0.61" stop-color="#eb5fc7"/>
      <stop offset="0.73" stop-color="#fa6398"/>
      <stop offset="0.77" stop-color="#ff6488"/>
      <stop offset="0.99" stop-color="#ff7500"/>
    </linearGradient>
    <linearGradient id="linear-gradient-2" x1="126.37" y1="-741.11" x2="104.53" y2="-733.21" gradientTransform="matrix(1, 0, 0, -1, 0, -648.86)" gradientUnits="userSpaceOnUse">
      <stop offset="0.25" stop-color="#7866ff"/>
      <stop offset="0.35" stop-color="#8f5ffa"/>
      <stop offset="0.53" stop-color="#b353f1"/>
      <stop offset="0.7" stop-color="#cd4aeb"/>
      <stop offset="0.86" stop-color="#dd45e7"/>
      <stop offset="0.98" stop-color="#e343e6"/>
    </linearGradient>
    <linearGradient id="linear-gradient-3" x1="104.26" y1="-734.46" x2="43.4" y2="-708.91" gradientTransform="matrix(1, 0, 0, -1, 0, -648.86)" gradientUnits="userSpaceOnUse">
      <stop offset="0.01" stop-color="#e343e6"/>
      <stop offset="0.06" stop-color="#e649ca"/>
      <stop offset="0.19" stop-color="#ef5982"/>
      <stop offset="0.37" stop-color="#fd7110"/>
      <stop offset="0.4" stop-color="#ff7500"/>
    </linearGradient>
  </defs>
  <title>icon_dotCover</title>
  <g>
    <polygon points="78.2 0 0 8.8 0 49 19.6 114.4 118 89.4 78.2 0" fill="url(#linear-gradient)"/>
    <polygon points="128 75.6 120.6 40.6 103.6 63.8 92 99.2 88.2 128 117 109.8 128 75.6" fill="url(#linear-gradient-2)"/>
    <polygon points="120.6 40.6 96 28.8 67.4 31.4 39.2 51 33.6 86 58.2 119.6 88.2 128 120.6 40.6" fill="url(#linear-gradient-3)"/>
  </g>
  <g>
    <rect x="24" y="24" width="80" height="80"/>
    <g>
      <path d="M31.6,34.6H44.4C54.8,34.6,62,41.8,62,51h0c0,9.4-7.2,16.6-17.6,16.6H31.6v-33Zm7.2,6.6v20h5.6c6,0,10-4,10-9.8h0a9.55,9.55,0,0,0-10-10H38.8V41.2Z" fill="#fff"/>
      <rect x="31.6" y="89" width="30" height="5" fill="#fff"/>
      <path d="M64.8,51.2h0A16.83,16.83,0,0,1,82,34c6.2,0,10,2,13,5.2l-4.6,5.4c-2.6-2.4-5.2-3.8-8.4-3.8-5.6,0-9.6,4.6-9.6,10.4h0c0,5.6,4,10.4,9.6,10.4,3.8,0,6.2-1.6,8.8-3.8l4.6,4.6c-3.4,3.6-7.2,6-13.6,6a16.9,16.9,0,0,1-17-17.2" fill="#fff"/>
    </g>
  </g>
</svg>
