<svg id="Logo" xmlns="http://www.w3.org/2000/svg" viewBox="0 0 800 121.05">
  <title>logo_dotCover</title>
  <g>
    <g>
      <path d="M191.79,215v-0.33c0-29.2,19.09-45.19,39.81-45.19,13.21,0,21.37,6,27.24,13.05V139.48h24.8V258.57h-24.8V246c-6,8.16-14.36,14.19-27.24,14.19C211.21,260.2,191.79,244.21,191.79,215Zm67.38,0v-0.33c0-14.52-9.63-24.14-21.21-24.14s-21.37,9.46-21.37,24.14V215c0,14.52,9.79,24.14,21.37,24.14S259.17,229.53,259.17,215Z" transform="translate(-50 -139.48)"/>
      <path d="M286.24,215.33V215c0-25.12,20.23-45.52,47.47-45.52,27.08,0,47.15,20.07,47.15,45.19V215c0,25.12-20.23,45.52-47.47,45.52C306.31,260.52,286.24,240.46,286.24,215.33Zm70.15,0V215c0-12.89-9.3-24.14-23-24.14-14.19,0-22.68,10.93-22.68,23.82V215c0,12.89,9.3,24.14,23,24.14C347.91,239.15,356.39,228.22,356.39,215.33Z" transform="translate(-50 -139.48)"/>
      <path d="M389.5,233.77V192.33H379.06V171.13H389.5V148.78h24.8v22.35h20.55v21.21H414.29v37.36c0,5.71,2.45,8.48,8,8.48a25.21,25.21,0,0,0,12.23-3.1V255c-5.22,3.1-11.26,5.06-19.58,5.06C399.78,260,389.5,254,389.5,233.77Z" transform="translate(-50 -139.48)"/>
      <path d="M437.94,201.79v-0.33c0-32.46,24.47-59.06,59.54-59.06,21.53,0,34.42,7.18,45,17.62l-16,18.43c-8.81-8-17.78-12.89-29.2-12.89-19.25,0-33.12,16-33.12,35.56v0.33c0,19.58,13.54,35.89,33.12,35.89,13.05,0,21-5.22,30-13.38l16,16.15c-11.75,12.56-24.8,20.39-46.82,20.39C462.9,260.52,437.94,234.58,437.94,201.79Z" transform="translate(-50 -139.48)"/>
      <path d="M539.74,215.33V215c0-25.12,20.23-45.52,47.47-45.52,27.08,0,47.15,20.07,47.15,45.19V215c0,25.12-20.23,45.52-47.47,45.52C559.8,260.52,539.74,240.46,539.74,215.33Zm70.15,0V215c0-12.89-9.3-24.14-23-24.14-14.19,0-22.68,10.93-22.68,23.82V215c0,12.89,9.3,24.14,23,24.14C601.4,239.15,609.88,228.22,609.88,215.33Z" transform="translate(-50 -139.48)"/>
      <path d="M625.21,171.13h26.26l19.58,58.57,19.74-58.57h25.78l-34.42,88.09H659.63Z" transform="translate(-50 -139.48)"/>
      <path d="M707.75,215.33V215c0-25,17.78-45.52,43.23-45.52,29.2,0,42.58,22.68,42.58,47.47,0,2-.16,4.24-0.33,6.53H732.38c2.45,11.26,10.28,17.13,21.37,17.13,8.32,0,14.36-2.61,21.21-9l14.19,12.56c-8.16,10.11-19.9,16.31-35.73,16.31C727.17,260.52,707.75,242.09,707.75,215.33ZM769.42,208c-1.47-11.09-8-18.6-18.43-18.6-10.28,0-17,7.34-18.92,18.6h37.36Z" transform="translate(-50 -139.48)"/>
      <path d="M797.31,171.13h24.8v17.62c5.06-12.07,13.21-19.9,27.9-19.25v25.94h-1.3c-16.48,0-26.59,10-26.59,30.83v32.3h-24.8V171.13Z" transform="translate(-50 -139.48)"/>
    </g>
    <g>
      <rect y="5.46" width="114.18" height="114.18"/>
      <path d="M60.69,159.25H71.82c9,0,15.16,6.16,15.16,14.19v0.08c0,8-6.2,14.27-15.16,14.27H60.69V159.25ZM67,164.92v17.21h4.85c5.14,0,8.6-3.47,8.6-8.52v-0.08a8.2,8.2,0,0,0-8.6-8.6H67Z" transform="translate(-50 -139.48)" fill="#fff"/>
      <path d="M89.45,173.62v-0.08a14.55,14.55,0,0,1,14.93-14.81c5.4,0,8.63,1.8,11.29,4.42l-4,4.62c-2.21-2-4.46-3.23-7.32-3.23-4.83,0-8.3,4-8.3,8.92v0.08c0,4.91,3.39,9,8.3,9,3.27,0,5.28-1.31,7.53-3.35l4,4.05a14.63,14.63,0,0,1-11.74,5.11,14.45,14.45,0,0,1-14.68-14.73" transform="translate(-50 -139.48)" fill="#fff"/>
      <rect x="10.7" y="98.23" width="42.82" height="7.14" fill="#fff"/>
    </g>
  </g>
</svg>
