<svg id="Logo" xmlns="http://www.w3.org/2000/svg" viewBox="0 0 800 122.46">
  <title>logo_YouTrack</title>
  <g>
    <g>
      <path d="M235,213.7l-44.39-70h29.71l27.56,46.37,28.06-46.37h28.88L260.37,213.2v46H235V213.7Z" transform="translate(-50 -138.77)"/>
      <path d="M276,215.51v-0.33c0-25.42,20.46-46,48-46,27.4,0,47.7,20.3,47.7,45.71v0.33c0,25.42-20.47,46-48,46C296.34,261.23,276,240.93,276,215.51Zm71,0v-0.33c0-13-9.41-24.43-23.27-24.43-14.36,0-22.94,11.06-22.94,24.09v0.33c0,13,9.41,24.43,23.27,24.43C338.43,239.61,347,228.55,347,215.51Z" transform="translate(-50 -138.77)"/>
      <path d="M375.39,228.06V170.79h25.09v49.35c0,11.88,5.61,18,15.18,18s15.68-6.11,15.68-18V170.79h25.09v88.46H431.33V246.7c-5.78,7.43-13.2,14.19-25.91,14.19C386.44,260.9,375.39,248.35,375.39,228.06Z" transform="translate(-50 -138.77)"/>
      <path d="M491.89,167.16H456.74V143.72h95.72v23.44H517.31v92.09H491.89V167.16Z" transform="translate(-50 -138.77)"/>
      <path d="M547,170.79H572.1v17.82c5.12-12.21,13.37-20.13,28.22-19.47v26.24H599c-16.67,0-26.9,10.07-26.9,31.19v32.68H547V170.79Z" transform="translate(-50 -138.77)"/>
      <path d="M594.87,233.83V233.5c0-19.31,14.69-28.22,35.65-28.22a62.86,62.86,0,0,1,21.62,3.63v-1.49c0-10.4-6.44-16.17-19-16.17-9.57,0-16.34,1.82-24.42,4.79l-6.27-19.14c9.74-4.29,19.31-7.1,34.33-7.1,13.7,0,23.6,3.63,29.87,9.9,6.6,6.6,9.57,16.34,9.57,28.22v51.33H652v-9.57c-6.11,6.77-14.52,11.22-26.74,11.22C608.56,260.9,594.87,251.33,594.87,233.83Zm57.6-5.78V223.6a38.9,38.9,0,0,0-16-3.3c-10.73,0-17.33,4.29-17.33,12.21v0.33c0,6.77,5.61,10.73,13.7,10.73C644.54,243.57,652.46,237.13,652.46,228.06Z" transform="translate(-50 -138.77)"/>
      <path d="M679.69,215.51v-0.33c0-25.25,19.31-46,46.37-46,16.67,0,27.07,5.61,35.32,14.85L746,200.5c-5.61-5.94-11.22-9.74-20.13-9.74-12.54,0-21.45,11.06-21.45,24.09v0.33c0,13.53,8.75,24.43,22.44,24.43,8.42,0,14.19-3.63,20.3-9.41l14.69,14.85c-8.58,9.41-18.48,16.17-36.14,16.17C699.16,261.23,679.69,240.76,679.69,215.51Z" transform="translate(-50 -138.77)"/>
      <path d="M764.35,138.77h25.09V203l29.38-32.18h30l-33.67,34.82L850,259.25H821l-22.61-36.31-8.91,9.41v26.9H764.35V138.77Z" transform="translate(-50 -138.77)"/>
    </g>
    <g>
      <rect y="4.98" width="115.5" height="115.5"/>
      <rect x="10.83" y="98.83" width="43.31" height="7.22" fill="#fff"/>
      <g>
        <polygon points="20.83 36.9 9.78 19.48 17.17 19.48 24.03 31.02 31.01 19.48 38.2 19.48 27.15 36.77 27.15 48.23 20.83 48.23 20.83 36.9" fill="#fff"/>
        <polygon points="50.16 25.32 41.41 25.32 41.41 19.48 65.23 19.48 65.23 25.32 56.48 25.32 56.48 48.23 50.16 48.23 50.16 25.32" fill="#fff"/>
      </g>
    </g>
  </g>
</svg>
